# xmcd
# Track frame offsets:
# 182
# 23417
# 49620
# 73435
# 92830
# 117862
# 141977
# 166082
# 199242
# 225755
#
# Disc length: 3246 seconds
# Revision: 0
# Processed by: cddbd v1.4PL0 Copyright (c) Steve Scherf et al.
# Submitted via: VisiTrax 2.9.5.181 - For more info visit www.synapsa.com
#
DISCID=7e0cac0a
DTITLE=Joe Louis Walker - Live At Slim`s    Volume 1
DYEAR=1991
DGENRE=Blues
TTITLE0=I Didn`t Know
TTITLE1=Moanin` News
TTITLE2=Don`t Play Games
TTITLE3=Don`t Mess Up A Good Thing
TTITLE4=Ridin` High
TTITLE5=Fuss and Fight
TTITLE6=One Time Around
TTITLE7=Don`t Know Why
TTITLE8=Bit By Bit ( Little By Little )
TTITLE9=Hot Tamale Baby
EXTD=Volume 1
EXTT0=
EXTT1=
EXTT2=
EXTT3=
EXTT4=
EXTT5=
EXTT6=
EXTT7=
EXTT8=
EXTT9=
PLAYORDER=
